<!DOCTYPE svg PUBLIC "-//W3C//DTD SVG 20010904//EN" "http://www.w3.org/TR/2001/REC-SVG-20010904/DTD/svg10.dtd">
<svg version="1.0" xmlns="http://www.w3.org/2000/svg" width="75px" height="98px" viewBox="0 0 750 980" preserveAspectRatio="xMidYMid meet">
<g id="layer101" fill="#33ccff" stroke="none">
 <path d="M63 960 c-64 -38 -63 -33 -63 -520 l0 -440 375 0 375 0 0 451 0 451 -39 39 -39 39 -288 0 c-269 0 -291 -1 -321 -20z"/>
 </g>
<g id="layer102" fill="#4fd3ff" stroke="none">
 <path d="M191 826 c-40 -22 -71 -84 -71 -141 1 -27 7 -61 14 -75 12 -21 12 -29 0 -52 -22 -42 -20 -315 2 -348 33 -49 37 -50 244 -50 191 0 197 1 217 23 11 12 26 32 33 45 16 32 17 147 1 166 -8 9 -9 20 -4 28 4 7 11 76 15 153 4 77 10 161 14 186 10 76 -1 79 -241 79 -147 -1 -206 -4 -224 -14z m334 -86 c4 -11 20 -27 37 -36 l30 -15 -4 -115 c-2 -88 -6 -117 -18 -124 -8 -5 -74 -10 -146 -10 -127 0 -131 -1 -143 -24 -7 -13 -11 -32 -9 -42 3 -17 15 -19 128 -21 154 -3 166 -6 177 -40 21 -63 20 -63 -182 -63 -174 0 -185 1 -195 20 -6 12 -9 71 -8 147 l3 128 140 3 140 3 13 26 c29 63 8 73 -150 73 -83 0 -128 4 -136 12 -18 18 -15 75 6 87 9 6 83 11 164 11 138 0 147 -1 153 -20z"/>
 </g>
<g id="layer103" fill="#b1ecff" stroke="none">
 <path d="M550 820 c-8 -5 -94 -10 -191 -10 -169 0 -176 -1 -197 -22 -44 -48 -53 -111 -25 -168 17 -33 17 -37 1 -70 -23 -46 -26 -272 -4 -324 26 -62 39 -66 249 -66 185 0 188 0 212 24 33 34 49 96 35 146 -6 21 -15 42 -20 45 -6 4 -3 19 7 38 13 25 18 63 20 162 2 72 8 147 15 167 9 31 8 41 -6 63 -17 27 -66 34 -96 15z m-15 -81 c4 -11 18 -24 31 -29 23 -9 24 -12 24 -125 0 -111 -8 -150 -34 -167 -6 -4 -71 -8 -143 -8 l-133 0 0 -24 0 -24 136 -4 c129 -3 137 -4 155 -27 23 -28 24 -59 3 -89 -15 -21 -21 -22 -194 -22 -149 0 -181 3 -194 16 -22 21 -23 270 -2 300 13 17 29 19 156 22 l141 4 -3 26 -3 27 -140 3 c-117 2 -142 5 -152 19 -20 26 -16 80 7 103 18 18 33 20 179 20 152 0 160 -1 166 -21z"/>
 </g>
<g id="layer104" fill="#d8f6ff" stroke="none">
 <path d="M560 820 c-8 -5 -93 -10 -188 -10 -99 0 -182 -4 -193 -10 -45 -25 -65 -135 -35 -190 12 -21 12 -29 0 -52 -10 -20 -14 -67 -14 -173 0 -154 9 -193 49 -215 12 -6 95 -10 198 -10 146 0 183 3 201 16 50 35 66 116 36 180 -14 29 -14 37 -3 51 10 11 16 62 21 167 3 83 9 167 13 187 6 31 3 39 -16 53 -27 18 -47 20 -69 6z m-20 -79 c5 -11 19 -23 30 -26 19 -6 20 -15 20 -133 0 -178 6 -172 -171 -172 l-139 0 0 -25 0 -25 129 0 c115 0 131 -2 155 -21 33 -26 36 -79 6 -109 -18 -18 -33 -20 -193 -20 -223 0 -212 -9 -212 175 0 180 -5 175 170 175 123 0 133 1 138 19 3 11 2 22 -1 25 -3 3 -65 6 -137 6 -120 0 -134 2 -150 20 -11 12 -19 36 -19 55 0 19 8 43 19 55 17 19 29 20 181 20 151 0 164 -1 174 -19z"/>
 </g>
<g id="layer105" fill="#fcfeff" stroke="none">
 <path d="M380 810 c-102 -3 -192 -9 -201 -13 -46 -23 -65 -132 -33 -187 16 -26 16 -29 0 -51 -13 -19 -16 -51 -16 -177 l0 -154 34 -34 34 -34 179 0 c199 0 213 4 239 66 19 45 18 83 -4 125 -17 33 -17 38 -3 59 12 18 18 63 22 174 4 83 10 163 14 177 9 33 -16 60 -53 57 -15 -1 -110 -5 -212 -8z m179 -79 l31 -29 0 -130 c0 -129 0 -131 -26 -151 -24 -19 -40 -21 -155 -21 -122 0 -129 -1 -129 -20 0 -19 7 -20 135 -20 122 0 137 -2 155 -20 25 -25 27 -86 3 -112 -14 -16 -34 -18 -192 -18 -97 0 -181 4 -187 8 -26 17 -34 56 -34 170 0 106 2 122 21 146 20 26 22 26 155 26 l134 0 0 25 0 25 -140 0 -140 0 -17 34 c-17 37 -13 75 13 100 13 13 44 16 179 16 l163 0 31 -29z"/>
 </g>

</svg>